HIERARCHY
ROOT Hips
{
	OFFSET 0.000000 0.000000 0.000000
	CHANNELS 6 Xposition Yposition Zposition Zrotation Yrotation Xrotation 
	JOINT LHipJoint
	{
		OFFSET 0.000000 0.000000 0.000000
		CHANNELS 3 Zrotation Yrotation Xrotation
		JOINT LeftUpLeg
		{
			OFFSET 1.363060 -1.794630 0.839290
			CHANNELS 3 Zrotation Yrotation Xrotation
			JOINT LeftLeg
			{
				OFFSET 2.448110 -6.726130 0.000000
				CHANNELS 3 Zrotation Yrotation Xrotation
				JOINT LeftFoot
				{
					OFFSET 2.562200 -7.039590 0.000000
					CHANNELS 3 Zrotation Yrotation Xrotation
					JOINT LeftToeBase
					{
						OFFSET 0.157640 -0.433110 2.322550
						CHANNELS 3 Zrotation Yrotation Xrotation
						End Site
						{
							OFFSET 0.000000 0.000000 0.000000
						}
					}
				}
			}
		}
	}
	JOINT RHipJoint
	{
		OFFSET 0.000000 0.000000 0.000000
		CHANNELS 3 Zrotation Yrotation Xrotation
		JOINT RightUpLeg
		{
			OFFSET -1.305520 -1.794630 0.839290
			CHANNELS 3 Zrotation Yrotation Xrotation
			JOINT RightLeg
			{
				OFFSET -2.542530 -6.985550 0.000000
				CHANNELS 3 Zrotation Yrotation Xrotation
				JOINT RightFoot
				{
					OFFSET -2.568260 -7.056230 0.000000
					CHANNELS 3 Zrotation Yrotation Xrotation
					JOINT RightToeBase
					{
						OFFSET -0.164730 -0.452590 2.363150
						CHANNELS 3 Zrotation Yrotation Xrotation
						End Site
						{
							OFFSET 0.000000 0.000000 0.000000
						}
					}
				}
			}
		}
	}
}
MOTION
Frames: 30
Frame Time: 0.008333
24.508912 16.806445 1.990362 146.506818 -82.045298 -108.960092 -7.340298 -0.632689 4.403302 -9.439333 -13.672329 -73.733983 0.068327 3.032009 59.042547 3.307508 12.851441 -13.761191 -0.630300 0.000000 -20.916600 12.674324 -3.008195 1.294154 -1.035141 -2.829458 -8.431487 0.968740 -0.073187 3.126774 -0.136853 0.713291 18.205690 0.107100 0.000000 -74.228400
24.249811 16.864506 1.994406 146.256122 -82.279062 -108.496765 -7.206776 -0.523273 4.561241 -9.305175 -14.054467 -73.547667 -0.099591 2.826050 56.332777 3.241808 12.538986 -12.763745 -0.334800 0.000000 -22.544301 12.765435 -3.044369 1.151882 -1.019200 -3.007769 -8.040070 0.864430 -0.133941 3.181989 -0.287161 -0.246108 19.522165 -0.269200 -0.000000 -69.951500
23.989445 16.913259 1.996297 145.735077 -82.578291 -107.772444 -7.079215 -0.403677 4.699442 -9.241023 -14.365907 -73.328424 -0.262423 2.630137 53.690843 3.151232 12.190592 -11.619288 -0.015100 -0.000000 -24.388600 12.841173 -3.061641 1.033247 -0.919119 -3.003403 -7.670967 0.743434 -0.177506 3.565096 -0.478257 -1.738028 19.967490 -0.927600 -0.000000 -65.297200
23.728097 16.952846 1.996907 144.873813 -82.952472 -106.740525 -6.967109 -0.280243 4.799997 -9.257415 -14.586675 -73.041631 -0.420638 2.450466 51.161222 3.033440 11.802576 -10.344718 0.317300 0.000000 -26.334400 12.890448 -3.063611 0.932800 -0.717819 -2.781655 -7.256482 0.604743 -0.207766 4.227875 -0.712189 -3.690666 19.668902 -1.802801 0.000000 -60.761600
23.466065 16.982798 1.996214 143.617704 -83.386137 -105.358637 -6.870011 -0.149800 4.862006 -9.381649 -14.707008 -72.673984 -0.576514 2.291536 48.783046 2.891968 11.382048 -8.976463 0.647700 -0.000000 -28.262300 12.920440 -3.046810 0.843784 -0.430884 -2.408524 -6.856069 0.456626 -0.235769 5.292428 -0.978154 -5.852646 18.686506 -2.721699 -0.000000 -56.597400
23.202888 17.002913 1.994160 141.886494 -83.853741 -103.560891 -6.785016 -0.008182 4.882966 -9.640602 -14.724301 -72.199503 -0.732789 2.156136 46.587706 2.734232 10.944529 -7.572975 0.958400 0.000000 -30.063100 12.940344 -3.009405 0.758162 -0.087681 -1.947447 -6.505381 0.307179 -0.272918 6.823818 -1.262179 -7.978671 17.159705 -3.517800 -0.000000 -53.085100
22.939109 17.013199 1.991986 139.727415 -84.355720 -101.407767 -6.723772 0.133722 4.853752 -10.010821 -14.608569 -71.602473 -0.887625 2.047692 44.624129 2.566237 10.489050 -6.220035 1.227100 0.000000 -31.651300 12.938649 -2.961414 0.672474 0.333178 -1.401866 -6.196543 0.165015 -0.328370 8.807555 -1.551736 -9.926899 15.305246 -4.106600 -0.000000 -50.535001
22.674900 17.013251 1.989968 137.111297 -84.859498 -98.881001 -6.683912 0.277514 4.777256 -10.495056 -14.363812 -70.865352 -1.041012 1.965285 42.918837 2.400362 10.037140 -5.012490 1.436700 0.000000 -32.965200 12.925758 -2.906531 0.573928 0.790017 -0.877814 -5.986987 0.043151 -0.415797 11.302795 -1.813265 -11.472408 13.275042 -4.398600 0.000000 -49.031500
22.410208 17.002785 1.989037 134.096346 -85.351798 -96.041416 -6.670854 0.415482 4.653532 -11.061687 -13.981246 -69.987537 -1.190156 1.907664 41.504106 2.246395 9.596287 -4.055843 1.571301 -0.000000 -33.968700 12.900045 -2.856945 0.458484 1.269823 -0.422218 -5.893467 -0.051589 -0.542998 14.277059 -2.018986 -12.513401 11.254418 -4.403100 0.000000 -48.691900
22.145401 16.981348 1.989614 130.736821 -85.809299 -92.941008 -6.683146 0.544835 4.488195 -11.686920 -13.471494 -68.973504 -1.333332 1.871141 40.396214 2.114961 9.182508 -3.448913 1.622100 0.000000 -34.651100 12.869095 -2.821234 0.322973 1.729878 -0.100474 -5.946327 -0.116754 -0.714596 17.696446 -2.140452 -12.961078 9.367116 -4.154501 0.000000 -49.453900
21.880278 16.948378 1.991596 127.108230 -86.198635 -89.642634 -6.712126 0.668835 4.292926 -12.357964 -12.868043 -67.833161 -1.470667 1.849978 39.591223 2.016415 8.820665 -3.270089 1.589200 -0.000000 -35.031599 12.848827 -2.802566 0.168270 2.099478 0.026864 -6.178555 -0.156307 -0.929898 21.514705 -2.157403 -12.761243 7.667675 -3.702700 0.000000 -51.045899
21.615000 16.903949 1.995821 123.366741 -86.535116 -86.289877 -6.762958 0.774998 4.068806 -13.019570 -12.173163 -66.595619 -1.598502 1.841657 39.105547 1.952445 8.500836 -3.582555 1.468200 0.000000 -35.140800 12.832082 -2.809269 0.004795 2.387320 0.001431 -6.557120 -0.181004 -1.179351 25.597075 -2.079076 -12.016119 6.217932 -3.149300 -0.000000 -53.290800
21.349797 16.848011 2.002072 119.602030 -86.809901 -82.953297 -6.828335 0.865036 3.827220 -13.650971 -11.424859 -65.287010 -1.716751 1.842163 38.928526 1.926276 8.231159 -4.409373 1.263400 0.000000 -35.031100 12.827586 -2.837731 -0.161019 2.559124 -0.174423 -7.081712 -0.201692 -1.453097 29.865406 -1.920074 -10.808318 4.981543 -2.551700 -0.000000 -55.764000
21.084612 16.781174 2.010757 115.816821 -87.045830 -79.627243 -6.911361 0.932016 3.569736 -14.211690 -10.635742 -63.937628 -1.823155 1.851831 39.067520 1.934345 7.992035 -5.748692 0.975500 0.000000 -34.749899 12.827658 -2.885380 -0.325880 2.640253 -0.456636 -7.709756 -0.229128 -1.739848 34.217497 -1.712267 -9.310398 3.923384 -1.974200 0.000000 -58.185900
20.819368 16.703968 2.021308 111.937441 -87.237619 -76.217017 -7.007306 0.982298 3.311202 -14.694151 -9.850875 -62.585452 -1.918468 1.870546 39.505243 1.975211 7.782616 -7.553084 0.614401 -0.000000 -34.358000 12.836021 -2.941897 -0.487714 2.617895 -0.835443 -8.446990 -0.272524 -2.031267 38.618155 -1.485074 -7.675256 2.958482 -1.449500 0.000000 -60.216000
20.554719 16.617542 2.033447 107.735417 -87.388002 -72.485394 -7.118665 1.018361 3.059008 -15.090157 -9.098814 -61.260931 -2.002831 1.901464 40.230771 2.043355 7.588548 -9.751122 0.191200 0.000000 -33.907000 12.846739 -2.998058 -0.650714 2.506550 -1.294636 -9.276016 -0.339467 -2.321339 43.028769 -1.268504 -6.083946 2.024155 -1.008200 0.000000 -61.736100
20.290645 16.523285 2.046482 102.921142 -87.480865 -68.128928 -7.247854 1.046536 2.825663 -15.409919 -8.420078 -59.995253 -2.077368 1.947502 41.217243 2.133142 7.403301 -12.241745 -0.276000 0.000000 -33.455500 12.855598 -3.044103 -0.818998 2.304792 -1.831361 -10.201683 -0.435791 -2.607042 47.438040 -1.084427 -4.691656 1.061653 -0.665400 0.000001 -62.698800
20.021929 16.418296 2.069304 84.811486 -87.228538 -50.296941 -7.639962 1.044944 2.903981 -15.213549 -8.693182 -59.109156 -2.067717 2.029276 42.485994 2.246869 7.300110 -14.768629 -0.734300 0.000000 -33.214900 12.550194 -3.075366 -1.154358 2.399344 -3.134734 -11.256321 -0.541796 -2.830148 51.661289 -0.948813 -3.686673 0.073078 -0.440400 0.000001 -63.115000
19.760448 16.314438 2.082005 78.119126 -86.995755 -43.997497 -7.837526 1.024838 2.733371 -15.454224 -8.300042 -58.005255 -2.122897 2.100533 43.879287 2.352982 7.110446 -17.486690 -1.223100 -0.000000 -32.956100 12.528899 -3.114739 -1.350072 2.009015 -3.865894 -12.408730 -0.691045 -3.127532 56.042529 -0.865549 -3.016642 -1.040832 -0.285500 -0.000001 -63.142100
19.500329 16.209339 2.093453 71.158053 -86.577079 -37.382238 -8.048357 0.990574 2.604652 -15.680706 -8.091381 -56.986206 -2.165565 2.174826 45.384633 2.457805 6.911394 -20.136445 -1.685400 0.000001 -32.868700 12.511808 -3.146508 -1.561906 1.524388 -4.700223 -13.681949 -0.868273 -3.438302 60.377929 -0.835736 -2.773186 -2.225610 -0.199800 -0.000001 -62.820100
19.241988 16.105826 2.103156 64.452902 -85.947221 -30.970800 -8.255911 0.944311 2.520863 -15.903700 -8.084469 -56.037391 -2.194136 2.243236 46.930736 2.555032 6.699445 -22.616598 -2.100799 -0.000000 -32.988200 12.514037 -3.167826 -1.789574 0.951022 -5.636836 -15.076301 -1.073410 -3.767645 64.638091 -0.855503 -2.932119 -3.454592 -0.155400 0.000000 -62.200400
18.985243 16.006760 2.110950 58.477527 -85.106867 -25.232921 -8.441360 0.894097 2.483331 -16.123722 -8.278324 -55.135764 -2.209075 2.298085 48.437195 2.639846 6.473356 -24.849989 -2.454600 -0.000000 -33.326100 12.549705 -3.168978 -2.030403 0.298907 -6.660078 -16.584992 -1.307712 -4.115291 68.786682 -0.917263 -3.425268 -4.688793 -0.124900 -0.000000 -61.307300
18.730158 15.914974 2.116844 53.480862 -84.079598 -20.420322 -8.592044 0.849809 2.491572 -16.334411 -8.654995 -54.249709 -2.213542 2.334464 49.820261 2.708968 6.234951 -26.788120 -2.738800 0.000000 -33.862100 12.623342 -3.136698 -2.279730 -0.420516 -7.739807 -18.194585 -1.572206 -4.476201 72.785431 -1.009875 -4.150067 -5.885670 -0.087501 -0.000000 -60.160500
18.476090 15.833087 2.121253 49.447743 -82.905939 -16.517909 -8.704783 0.817661 2.542509 -16.521329 -9.183811 -53.345456 -2.212784 2.349137 50.996177 2.760667 5.988404 -28.409924 -2.952600 0.000000 -34.550101 12.727945 -3.059454 -2.530920 -1.189429 -8.832859 -19.892382 -1.865272 -4.842549 76.592915 -1.119341 -4.985450 -7.005173 -0.032900 0.000000 -58.784900
18.222812 15.763345 2.124564 46.243261 -81.631804 -13.397915 -8.783017 0.799193 2.630122 -16.668050 -9.823891 -52.382557 -2.213055 2.339174 51.889668 2.795163 5.740517 -29.720687 -3.101800 -0.000000 -35.311300 12.850353 -2.931916 -2.774729 -1.989487 -9.890778 -21.664047 -2.182460 -5.206757 80.171697 -1.229859 -5.807189 -8.019697 0.038900 -0.000001 -57.244300
17.969509 15.707648 2.127461 43.667709 -80.311233 -10.862984 -8.833532 0.792106 2.744940 -16.750490 -10.527285 -51.326871 -2.220304 2.301648 52.435869 2.814340 5.499542 -30.743927 -3.196800 0.000000 -36.061199 12.975418 -2.753299 -3.000506 -2.791689 -10.859305 -23.502754 -2.516335 -5.560689 83.485691 -1.326210 -6.506601 -8.915958 0.120800 0.000000 -55.615200
17.715625 15.667377 2.130492 41.546778 -79.000975 -8.744444 -8.864327 0.793181 2.874981 -16.745529 -11.241811 -50.146779 -2.239508 2.233739 52.584708 2.821411 5.274641 -31.516114 -3.250499 -0.000000 -36.718099 13.089558 -2.527017 -3.196650 -3.566026 -11.684838 -25.404476 -2.857601 -5.896277 86.505627 -1.395901 -7.002567 -9.697521 0.202700 -0.000001 -53.991700
17.460085 15.643469 2.134222 39.741518 -77.759689 -6.906867 -8.883807 0.799800 3.006621 -16.632211 -11.914522 -48.819173 -2.273797 2.133225 52.301885 2.819791 5.074656 -32.075366 -3.275800 0.000000 -37.219200 13.181947 -2.258443 -3.351892 -4.281205 -12.316703 -27.371135 -3.195361 -6.205013 89.208144 -1.431055 -7.249739 -10.382869 0.275800 -0.000001 -52.458700
17.202373 15.636333 2.138994 38.148885 -76.645337 -5.251718 -8.900192 0.810662 3.126222 -16.395566 -12.495094 -47.330093 -2.323960 1.998796 51.568285 2.812213 4.907543 -32.452972 -3.283500 0.000000 -37.545400 13.244939 -1.953872 -3.455820 -4.909853 -12.710327 -29.407390 -3.517849 -6.478315 91.576211 -1.429376 -7.240727 -10.999530 0.334700 -0.000000 -51.084500
16.941544 15.645944 2.145049 36.694525 -75.711318 -3.706438 -8.921175 0.826154 3.222058 -16.028839 -12.938933 -45.674616 -2.388210 1.830241 50.379179 2.799551 4.778476 -32.664834 -3.279800 0.000000 -37.724200 13.274066 -1.619537 -3.498856 -5.431275 -12.830259 -31.520323 -3.812726 -6.707839 93.596581 -1.393985 -7.002143 -11.576960 0.376900 -0.000000 -49.914300
